<?xml version="1.0" standalone="no"?>
<!DOCTYPE svg PUBLIC "-//W3C//DTD SVG 20010904//EN"
 "http://www.w3.org/TR/2001/REC-SVG-20010904/DTD/svg10.dtd">
<svg version="1.0" xmlns="http://www.w3.org/2000/svg"
 width="512.000000pt" height="512.000000pt" viewBox="0 0 512.000000 512.000000"
 preserveAspectRatio="xMidYMid meet">

<g transform="translate(0.000000,512.000000) scale(0.100000,-0.100000)"
fill="#000000" stroke="none">
<path d="M712 4116 c-276 -70 -514 -355 -622 -747 -35 -130 -51 -238 -57 -399
-17 -455 124 -864 383 -1109 134 -127 264 -182 431 -183 377 -1 702 394 788
960 18 114 21 384 5 492 -29 207 -78 369 -161 532 -112 218 -277 376 -459 439
-80 27 -229 35 -308 15z m284 -482 c80 -39 180 -139 232 -234 180 -323 156
-806 -53 -1076 -232 -299 -583 -229 -756 151 -67 149 -99 361 -80 536 35 321
185 566 393 641 77 27 185 20 264 -18z"/>
<path d="M1770 3098 c0 -991 1 -1038 19 -1111 23 -89 50 -146 98 -205 42 -52
126 -102 171 -102 l33 0 -4 1033 c-3 939 -5 1038 -20 1096 -48 177 -146 293
-269 318 l-28 6 0 -1035z"/>
<path d="M2303 4109 c-68 -44 -109 -189 -83 -297 23 -100 83 -162 155 -162 79
0 155 118 155 240 0 123 -76 240 -156 240 -22 0 -53 -9 -71 -21z"/>
<path d="M2213 2808 c4 -824 3 -809 64 -935 52 -106 155 -193 228 -193 l25 0
0 743 c0 703 -1 748 -19 819 -44 173 -145 292 -264 312 l-38 7 4 -753z"/>
<path d="M2587 3468 c13 -51 129 -475 257 -943 l232 -850 151 -3 151 -3 16 53
c45 157 496 1817 496 1827 0 7 -36 11 -113 11 -97 0 -119 -3 -157 -22 -83 -42
-91 -62 -244 -613 -76 -275 -141 -503 -145 -508 -4 -4 -70 219 -146 495 -154
553 -166 584 -244 625 -39 20 -58 23 -162 23 l-117 0 25 -92z"/>
<path d="M4352 3549 c-150 -29 -299 -153 -395 -329 -197 -358 -189 -897 18
-1239 146 -242 370 -351 590 -287 234 68 424 343 480 692 18 110 20 342 5 441
-43 272 -159 500 -320 625 -113 88 -248 123 -378 97z m188 -499 c80 -41 151
-146 185 -275 20 -78 20 -241 0 -320 -47 -182 -159 -296 -289 -296 -68 0 -118
24 -175 86 -81 88 -125 220 -124 375 1 155 44 282 127 368 85 90 180 111 276
62z"/>
</g>
</svg>
